<svg xmlns="http://www.w3.org/2000/svg" viewBox="0 0 310.71 61.89"><path d="M28.15,25.72a15.94,15.94,0,0,1,6.25,3.73A12.33,12.33,0,0,1,38,38.23a20,20,0,0,1-3.63,11.43,25.15,25.15,0,0,1-8.73,7.89,22.92,22.92,0,0,1-11,2.92,23.8,23.8,0,0,1-9.5-2.23c-.26.8-.42,1.32-.48,1.59-.38,1.37-1,2.06-1.8,2.06a2.61,2.61,0,0,1-2.2-1.44A3.72,3.72,0,0,1,0,58.38q0-1.53,1.92-6.46Q5.87,41.81,8.84,36q1.83-3.55,7.62-13.55,2.53-4.3,7.31-11.74c.76-1.18,1.49-2.36,2.19-3.57a46.12,46.12,0,0,0-5.48,2.3,15.29,15.29,0,0,1-3.3,1.32A1.38,1.38,0,0,1,16,10.15a2.49,2.49,0,0,1-.49-1.54,2.22,2.22,0,0,1,.92-2,33,33,0,0,1,6-3Q31.44,0,37,0a11.65,11.65,0,0,1,7.56,2.32,7.15,7.15,0,0,1,2.91,5.83q0,7.26-8.36,12.54A46.55,46.55,0,0,1,28.15,25.72ZM6.36,54.5a15.79,15.79,0,0,0,2.2,1.14,13.67,13.67,0,0,0,5,.74,17.87,17.87,0,0,0,15-7.45q4.77-6.3,4.76-12.36A7.46,7.46,0,0,0,29.65,30a9,9,0,0,0-5-1.4,16.54,16.54,0,0,0-3.25.49,3.61,3.61,0,0,1-.79.09c-.71,0-1.29-.51-1.76-1.53a115.4,115.4,0,0,0-7.89,15Q8.69,47.6,6.36,54.5ZM21.56,23a41.65,41.65,0,0,0,14.05-5.34q7.64-4.64,7.63-9.2a3.67,3.67,0,0,0-2-3.29,7.18,7.18,0,0,0-3.69-.79,18.87,18.87,0,0,0-3.3.34,27.11,27.11,0,0,0-3.73,1,1.68,1.68,0,0,1,.75,1.4,5.83,5.83,0,0,1-1.45,3.08c-.32.44-.9,1.3-1.75,2.59q-.48.84-2.94,4.45A61.72,61.72,0,0,0,21.56,23Z"/><path d="M53.68,49.41a33.22,33.22,0,0,1-2.84,4.31C49,56,47.17,57.15,45.35,57.16a4.11,4.11,0,0,1-3.7-2.24,6.77,6.77,0,0,1-.84-3.42,23.74,23.74,0,0,1,3.06-10.78,28.41,28.41,0,0,1,8.24-10.07,10.48,10.48,0,0,1,6.11-2.3,4.34,4.34,0,0,1,3.07,1.14,3.06,3.06,0,0,1,1.06,2.28,7.25,7.25,0,0,1-.74,2.68,3,3,0,0,1,.66,1.63,7.35,7.35,0,0,1-1.22,3,33.15,33.15,0,0,0-2.54,5.72,19.18,19.18,0,0,0-1.35,6.06,4.3,4.3,0,0,0,1.1,3,8.45,8.45,0,0,0,1.81,1,1.89,1.89,0,0,1,1.1,1.85,1.71,1.71,0,0,1-.61,1.36,2.28,2.28,0,0,1-1.54.57,5.08,5.08,0,0,1-4.09-2.1,6.59,6.59,0,0,1-1.42-4.3C53.51,51.72,53.57,50.75,53.68,49.41Zm5.47-14.47A4.43,4.43,0,0,0,58,33.51a2.25,2.25,0,0,0-1.32-.46q-3.34,0-7.24,5.86-4.31,6.47-4.29,11a2.8,2.8,0,0,0,.42,1.67,1.46,1.46,0,0,0,1.25.57q2.12,0,4.92-4.49a74.45,74.45,0,0,0,3.9-7.26,37.25,37.25,0,0,1,2.23-4.13A6.22,6.22,0,0,1,59.15,34.94Z"/><path d="M72,42.17a86,86,0,0,1,9.91-9,40.37,40.37,0,0,1,4.31-2.95,4.43,4.43,0,0,1,1.45-.66c.44,0,.88.32,1.32,1a1.66,1.66,0,0,1,.39,1c0,.52-.55,1.24-1.66,2.15Q83.28,37.18,83.28,39c0,.68.39,1,1.15,1,1.26,0,3.42-1.05,6.5-3.13a2.46,2.46,0,0,1,1.31-.53,1,1,0,0,1,.71.35,1.23,1.23,0,0,1,.4.83q0,1.32-3.69,4.05a12.45,12.45,0,0,1-7.33,2.92,4.8,4.8,0,0,1-2.6-.75,2.36,2.36,0,0,1-1-2.19A4.71,4.71,0,0,1,79.64,39a43.51,43.51,0,0,0-8.16,8.46,60.76,60.76,0,0,0-5.39,9.1c-.67,1.35-1.5,2-2.5,2S62,58.11,62,57.08s.84-3.66,2.53-8q3.77-9.67,7.89-15,2.53-3.3,4.25-3.3a1.73,1.73,0,0,1,1.06.35,1.32,1.32,0,0,1,.57,1.09,3.62,3.62,0,0,1-.87,1.85l-2.33,3A23.3,23.3,0,0,0,72,42.17Z"/><path d="M104.15,33.49q3.72-3.17,6.72-3.17a3.64,3.64,0,0,1,3,1.53A4.9,4.9,0,0,1,115,35a20.49,20.49,0,0,1-2.22,8.31,34.22,34.22,0,0,1-7.23,10.08c-2.61,2.58-5.09,3.87-7.47,3.88a5.8,5.8,0,0,1-2.39-.48,5.43,5.43,0,0,1-1.92-1.45c-.23.41-.38.68-.43.8a12.59,12.59,0,0,1-1,2,1.08,1.08,0,0,1-.9.36,2,2,0,0,1-1.5-.92,2.11,2.11,0,0,1-.48-1.32q0-1.23,5-12.45a301,301,0,0,1,16.34-31.14q3.76-6.33,4.6-7.43c.61-.88,1.18-1.33,1.71-1.33a2.16,2.16,0,0,1,1.72,1,2.28,2.28,0,0,1,.48,1.45,4.86,4.86,0,0,1-.83,2.33c-.12.2-1,1.71-2.76,4.53A167.7,167.7,0,0,0,104.15,33.49Zm-7.37,19a2.6,2.6,0,0,0,1.43.43q3.83,0,8.07-6.65a30.84,30.84,0,0,0,3.11-5.94,12.14,12.14,0,0,0,1-3.91,1.85,1.85,0,0,0-.39-1.3,1.68,1.68,0,0,0-1.24-.41c-1.34,0-3,.93-4.87,2.78a31.54,31.54,0,0,0-5.61,7.87Q97,47.89,96,50l-.57,1.19A5.53,5.53,0,0,0,96.78,52.54Z"/><path d="M120,48.1v.79a2.84,2.84,0,0,0,.49,1.67,4,4,0,0,0,3.6,1.62q5.5,0,12.69-8.47c.85-1,1.56-1.45,2.15-1.45a1.13,1.13,0,0,1,.88.48,1.11,1.11,0,0,1,.26.66c0,1.14-1.4,3.08-4.2,5.81a31.9,31.9,0,0,1-7,5.24,14.8,14.8,0,0,1-6.93,2,6.38,6.38,0,0,1-5.19-2.28,6.66,6.66,0,0,1-1.29-4.3q0-7.42,7-14.56c3.78-3.88,7.07-5.81,9.88-5.82a3.34,3.34,0,0,1,2.07.7,3,3,0,0,1,1.14,2.41c0,1.56-.71,3.46-2.14,5.72A22.94,22.94,0,0,1,120,48.1Zm1-3.43a17.78,17.78,0,0,0,4.83-2.38,19.65,19.65,0,0,0,4.87-5.37,3.68,3.68,0,0,0,.65-1.9c0-.58-.28-.87-.83-.87-.77,0-1.85.57-3.25,1.72A22.39,22.39,0,0,0,121,44.67Z"/><path d="M149.3,42a85.16,85.16,0,0,1,9.91-9,41.34,41.34,0,0,1,4.3-3,4.53,4.53,0,0,1,1.45-.66c.44,0,.88.32,1.32,1a1.62,1.62,0,0,1,.4,1c0,.53-.56,1.25-1.67,2.16q-4.47,3.57-4.47,5.37c0,.67.38,1,1.14,1,1.26,0,3.43-1.05,6.5-3.14a2.6,2.6,0,0,1,1.32-.53,1,1,0,0,1,.7.35,1.18,1.18,0,0,1,.4.84q0,1.32-3.68,4.05a12.39,12.39,0,0,1-7.34,2.91,4.76,4.76,0,0,1-2.59-.74,2.37,2.37,0,0,1-1-2.2,4.77,4.77,0,0,1,.92-2.5,43.12,43.12,0,0,0-8.15,8.45,60.57,60.57,0,0,0-5.39,9.11c-.68,1.35-1.51,2-2.5,2s-1.63-.51-1.63-1.53.84-3.66,2.53-8q3.76-9.67,7.88-15,2.55-3.31,4.26-3.31a1.77,1.77,0,0,1,1.05.35,1.32,1.32,0,0,1,.58,1.1,3.61,3.61,0,0,1-.88,1.85c-.12.14-.89,1.13-2.32,3A22.87,22.87,0,0,0,149.3,42Z"/><path d="M189,27.23a7,7,0,0,1,4.09,1,3.35,3.35,0,0,1,1.37,2.94,7.92,7.92,0,0,1-1.93,5,12.65,12.65,0,0,1-5.53,3.7,10.36,10.36,0,0,1-3.38.76c-1.23,0-1.85-.54-1.85-1.63a1.81,1.81,0,0,1,1.05-1.67,29.87,29.87,0,0,1,3-.75,6.68,6.68,0,0,0,3-1.55,2.87,2.87,0,0,0,1.18-2.19,1.7,1.7,0,0,0-.53-1.37,2.44,2.44,0,0,0-1.58-.43,10.33,10.33,0,0,0-5.63,2.07q-3.56,2.34-3.55,5.55,0,2.28,2.35,5.71,2.59,3.72,2.6,6.32a6.87,6.87,0,0,1-3.42,6.07,8.6,8.6,0,0,1-4.78,1.37,7.42,7.42,0,0,1-6.43-3A8.55,8.55,0,0,1,167.42,50a9.22,9.22,0,0,1,1.74-5.76,3.11,3.11,0,0,1,2.37-1.55c.74,0,1.1.29,1.1.88a2.51,2.51,0,0,1-.39,1.06,9.32,9.32,0,0,0-1,4.44,4.86,4.86,0,0,0,1.54,3.64A4.32,4.32,0,0,0,175.91,54a3.3,3.3,0,0,0,2.67-1.14,3.77,3.77,0,0,0,.79-2.47q0-1.84-2.12-4.78-2.91-4-2.91-7.34,0-4.39,4.77-7.78A16.82,16.82,0,0,1,189,27.23Z"/><path d="M59.23,8.76H54.79V7.15h10.7V8.76H61.06V20.08H59.23Z"/><path d="M77.22,7.15V20.08H75.38V14.32H68v5.76H66.1V7.15H68v5.56h7.43V7.15Z"/><path d="M89.09,18.48v1.6H79.7V7.15h9.13V8.76H81.55v4H88V14.3H81.55v4.18Z"/><path d="M242.22.6a5.31,5.31,0,0,1,4.51,2.16A6.42,6.42,0,0,1,248,6.81a21.36,21.36,0,0,1-3,9.69,35.52,35.52,0,0,1-6.32,8.37c-1.66,1.6-2.95,2.39-3.89,2.38a2.29,2.29,0,0,1-1.71-.94,2.21,2.21,0,0,1-.55-1.5c0-1,.91-2.19,2.71-3.49a25.25,25.25,0,0,0,6.08-6.09c2.23-3.2,3.36-5.92,3.38-8.14a3,3,0,0,0-.57-2,2.32,2.32,0,0,0-1.78-.68c-1.61,0-3.9,1.14-6.89,3.45a71.84,71.84,0,0,0-10.78,10.66,75.15,75.15,0,0,0-11.07,17q-3.94,8.66-4,14.81a7.6,7.6,0,0,0,1.67,5,5.74,5.74,0,0,0,4.59,2.37q4.74,0,12-7.26a60.91,60.91,0,0,0,5.29-6.46,31.48,31.48,0,0,0,2.64-3.84c.44-.84,1-1.26,1.55-1.26s1,.32.95.94c0,1.31-1.68,4.26-5,8.82a41,41,0,0,1-9.1,9.32q-5.57,4-10.49,4a8.81,8.81,0,0,1-7.91-4.69,12.58,12.58,0,0,1-1.74-6.74q.09-9.49,9.2-23.86A89.16,89.16,0,0,1,229.59,6.94Q237,.55,242.22.6Z"/><path d="M247,42.58q-1.35,3.41-2,5.51a12.45,12.45,0,0,0-.69,2.94,1,1,0,0,0,1.05,1.11q1.57,0,4.11-3A55.14,55.14,0,0,0,253.05,44c.62-1,1.27-1.48,1.95-1.48s1.14.38,1.13,1.11q0,1.89-4.43,7.61-4.57,6-8.45,5.93a3.24,3.24,0,0,1-2.71-1.43,4,4,0,0,1-.72-2.47,22.24,22.24,0,0,1,1.56-6.79,107.27,107.27,0,0,1,4.54-10.55,147.71,147.71,0,0,1,15.68-26q6.36-8.2,10.5-8.16a2.66,2.66,0,0,1,2.14,1,3.49,3.49,0,0,1,.86,2.34Q275,11.3,263.91,25.52A106.11,106.11,0,0,1,252,38.14C250.79,39.25,249.14,40.72,247,42.58Zm3.19-7A80.2,80.2,0,0,0,266.77,16q3.8-6.17,3.82-8.18c0-.65-.27-1-.83-1q-2.42,0-8.88,9.54A137.38,137.38,0,0,0,250.23,35.62Z"/><path d="M271.35,50.68A44.76,44.76,0,0,1,268,54.87q-2.58,2.79-5.08,2.76a3.72,3.72,0,0,1-3.32-2,6,6,0,0,1-.8-3.26q0-5.65,5-13a22.82,22.82,0,0,1,4.49-5.18A4.86,4.86,0,0,1,271,32.84a1.57,1.57,0,0,1,1.14.54,1.44,1.44,0,0,1,.43,1c0,.55-.56,1.46-1.65,2.7a45.63,45.63,0,0,0-5.62,8q-2.23,4.24-2.26,6.66a1.39,1.39,0,0,0,.28.94,1,1,0,0,0,.81.34q2.24,0,6.3-6.35a40.89,40.89,0,0,0,3.63-7.35,14.67,14.67,0,0,1,2.11-3.89,3.34,3.34,0,0,1,2.43-1.52,1.59,1.59,0,0,1,1.18.59,2,2,0,0,1,.56,1.37q0,1.58-3.11,7.08a14.16,14.16,0,0,0-2.12,6.36,7.56,7.56,0,0,0,1.4,4.67,9.53,9.53,0,0,0,2.4,1.69,2,2,0,0,1,.95,1.86,1.75,1.75,0,0,1-.69,1.35,2.51,2.51,0,0,1-1.66.56,5.66,5.66,0,0,1-4-1.8,7.74,7.74,0,0,1-2-4.59C271.49,52.71,271.43,51.94,271.35,50.68Z"/><path d="M295.24,34.57q3.76-3.14,6.76-3.1A3.66,3.66,0,0,1,305,33a4.85,4.85,0,0,1,1.07,3.17,20.74,20.74,0,0,1-2.32,8.29,34.7,34.7,0,0,1-7.35,10c-2.63,2.55-5.14,3.82-7.51,3.79a5.8,5.8,0,0,1-2.39-.5,5.54,5.54,0,0,1-1.9-1.47c-.24.4-.38.67-.44.78a11.73,11.73,0,0,1-1.06,2,1.07,1.07,0,0,1-.9.34,1.93,1.93,0,0,1-1.49-.93,2.2,2.2,0,0,1-.47-1.33q0-1.23,5.18-12.38a297.54,297.54,0,0,1,16.7-30.95q3.84-6.3,4.68-7.39c.63-.87,1.2-1.3,1.73-1.3a2.16,2.16,0,0,1,1.7,1,2.24,2.24,0,0,1,.47,1.45,4.83,4.83,0,0,1-.85,2.32q-.18.31-2.82,4.5A169.14,169.14,0,0,0,295.24,34.57Zm-7.59,19a2.63,2.63,0,0,0,1.42.46q3.82,0,8.16-6.56a31.85,31.85,0,0,0,3.17-5.9,12.47,12.47,0,0,0,1.05-3.9,1.81,1.81,0,0,0-.38-1.3,1.61,1.61,0,0,0-1.23-.43c-1.34,0-3,.89-4.9,2.72a31.63,31.63,0,0,0-5.7,7.81q-1.35,2.44-2.33,4.59l-.59,1.18A5.39,5.39,0,0,0,287.65,53.52Z"/></svg>