<svg xmlns="http://www.w3.org/2000/svg" xmlns:xlink="http://www.w3.org/1999/xlink" viewBox="0 0 259 259"><defs><style>.a{fill:none;stroke-miterlimit:10;stroke-width:15px;stroke:url(#a);}.b{fill:#fff;}.c{fill:url(#b);}.d{fill:url(#c);}.e{fill:url(#d);}</style><linearGradient id="a" y1="129.5" x2="259" y2="129.5" gradientUnits="userSpaceOnUse"><stop offset="0" stop-color="#f8f8f8"/><stop offset="0" stop-color="#e9c156"/><stop offset="0.18" stop-color="#ffa"/><stop offset="0.41" stop-color="#e1ab39"/><stop offset="0.67" stop-color="#633110"/><stop offset="0.94" stop-color="#e9c156"/></linearGradient><linearGradient id="b" x1="88.55" y1="91.24" x2="88.55" y2="78.31" gradientUnits="userSpaceOnUse"><stop offset="0" stop-color="#f8f8f8"/><stop offset="0" stop-color="#e9c156"/><stop offset="0.18" stop-color="#ffa"/><stop offset="0.41" stop-color="#e1ab39"/><stop offset="0.94" stop-color="#e9c156"/></linearGradient><linearGradient id="c" x1="100.07" y1="91.24" x2="100.07" y2="78.31" xlink:href="#b"/><linearGradient id="d" x1="112.81" y1="91.24" x2="112.81" y2="78.31" xlink:href="#b"/></defs><circle class="a" cx="129.5" cy="129.5" r="122"/><path class="b" d="M55.07,108.66a15.85,15.85,0,0,1,6.65,2.93,12.31,12.31,0,0,1,4.67,8.27,20.12,20.12,0,0,1-2.19,11.79,25.1,25.1,0,0,1-7.7,8.9,23,23,0,0,1-10.58,4.25,23.79,23.79,0,0,1-9.7-1c-.16.82-.26,1.36-.28,1.63-.21,1.41-.72,2.17-1.53,2.27a2.61,2.61,0,0,1-2.36-1.16,3.7,3.7,0,0,1-.91-2c-.13-1,.24-3.23,1.11-6.65q2.67-10.51,4.91-16.61,1.4-3.75,5.9-14.38,2-4.59,5.82-12.55.91-1.89,1.74-3.81a44.93,44.93,0,0,0-5.17,3,15,15,0,0,1-3.1,1.72,1.42,1.42,0,0,1-1.22-.51,2.57,2.57,0,0,1-.67-1.47,2.19,2.19,0,0,1,.67-2.07,32.12,32.12,0,0,1,5.56-3.67q8.49-4.74,14-5.43a11.68,11.68,0,0,1,7.79,1.37,7.19,7.19,0,0,1,3.6,5.43q.91,7.2-6.76,13.48A47.14,47.14,0,0,1,55.07,108.66ZM37,139.9a16.27,16.27,0,0,0,2.32.86,13.78,13.78,0,0,0,5.06.12,17.9,17.9,0,0,0,14-9.24q4-6.84,3.21-12.85a7.47,7.47,0,0,0-4.44-6,9.05,9.05,0,0,0-5.19-.77,16.21,16.21,0,0,0-3.16.89,3.53,3.53,0,0,1-.78.18c-.69.09-1.34-.34-1.93-1.3a115.85,115.85,0,0,0-6,15.85A122.48,122.48,0,0,0,37,139.9Zm11.21-33.12a41.67,41.67,0,0,0,13.29-7q7-5.53,6.44-10.06a3.65,3.65,0,0,0-2.42-3,7.1,7.1,0,0,0-3.76-.33,18.55,18.55,0,0,0-3.23.74,28,28,0,0,0-3.58,1.45,1.68,1.68,0,0,1,.91,1.3,5.77,5.77,0,0,1-1.05,3.23c-.27.48-.74,1.41-1.42,2.79-.25.59-1,2.19-2.37,4.77A61.28,61.28,0,0,0,48.19,106.78Z"/><path class="b" d="M83.31,129a32.71,32.71,0,0,1-2.3,4.63c-1.54,2.5-3.22,3.86-5,4.08A4.09,4.09,0,0,1,72.05,136a6.84,6.84,0,0,1-1.26-3.3,23.7,23.7,0,0,1,1.71-11.06,28.49,28.49,0,0,1,7-11,10.49,10.49,0,0,1,5.77-3,4.3,4.3,0,0,1,3.2.75,3.11,3.11,0,0,1,1.33,2.13,7.35,7.35,0,0,1-.41,2.75,2.92,2.92,0,0,1,.86,1.54,7.6,7.6,0,0,1-.84,3.16,33.5,33.5,0,0,0-1.82,6,19,19,0,0,0-.6,6.19A4.29,4.29,0,0,0,88.41,133a8.23,8.23,0,0,0,1.91.78,1.88,1.88,0,0,1,1.32,1.69,1.68,1.68,0,0,1-.44,1.43,2.23,2.23,0,0,1-1.45.76A5.13,5.13,0,0,1,85.43,136a6.55,6.55,0,0,1-1.93-4.1C83.43,131.35,83.36,130.38,83.31,129ZM87,114a4.43,4.43,0,0,0-1.31-1.27,2.13,2.13,0,0,0-1.37-.3q-3.32.42-6.46,6.71-3.48,6.94-2.91,11.39a2.79,2.79,0,0,0,.62,1.6,1.45,1.45,0,0,0,1.31.42q2.1-.27,4.33-5.07a75.49,75.49,0,0,0,3-7.68,37.89,37.89,0,0,1,1.7-4.38A6.61,6.61,0,0,1,87,114Z"/><path class="b" d="M100.64,119.59a85.43,85.43,0,0,1,8.73-10.17,40.74,40.74,0,0,1,3.91-3.46,4.74,4.74,0,0,1,1.35-.84,1.76,1.76,0,0,1,1.43.8,1.65,1.65,0,0,1,.52.91c.06.52-.4,1.3-1.39,2.34q-4,4.1-3.78,5.88c.08.67.5,1,1.26.86q1.88-.24,6.06-3.91a2.54,2.54,0,0,1,1.24-.68,1,1,0,0,1,.75.26,1.16,1.16,0,0,1,.49.78q.17,1.31-3.16,4.47a12.39,12.39,0,0,1-6.92,3.79,4.68,4.68,0,0,1-2.66-.42,2.36,2.36,0,0,1-1.28-2,4.76,4.76,0,0,1,.6-2.6,43.09,43.09,0,0,0-7.05,9.39,60.36,60.36,0,0,0-4.23,9.7c-.51,1.42-1.25,2.19-2.24,2.31s-1.68-.3-1.8-1.32.38-3.74,1.53-8.25q2.55-10.06,6-15.86c1.41-2.39,2.69-3.65,3.82-3.8a1.82,1.82,0,0,1,1.09.22,1.32,1.32,0,0,1,.7,1,3.59,3.59,0,0,1-.64,1.94L103,114.11A23.49,23.49,0,0,0,100.64,119.59Z"/><path class="b" d="M131.44,107q3.31-3.6,6.28-4a3.67,3.67,0,0,1,3.2,1.15,4.89,4.89,0,0,1,1.48,3,20.57,20.57,0,0,1-1.19,8.52,34.2,34.2,0,0,1-5.94,10.88q-3.39,4.33-6.93,4.77a5.75,5.75,0,0,1-2.43-.18,5.41,5.41,0,0,1-2.08-1.2c-.18.44-.3.72-.34.84a12.57,12.57,0,0,1-.78,2.09,1.07,1.07,0,0,1-.85.46,2,2,0,0,1-1.6-.73,2.08,2.08,0,0,1-.64-1.25q-.15-1.21,3.46-13a301.9,301.9,0,0,1,12.39-32.91c2-4.5,3.19-7.15,3.65-7.94.51-.95,1-1.46,1.54-1.52a2.16,2.16,0,0,1,1.82.74,2.3,2.3,0,0,1,.66,1.38,4.82,4.82,0,0,1-.54,2.42c-.09.21-.81,1.83-2.18,4.83A168.43,168.43,0,0,0,131.44,107Zm-5,19.81a2.58,2.58,0,0,0,1.48.25c2.53-.31,4.92-2.85,7.19-7.59a31.26,31.26,0,0,0,2.36-6.27,12.25,12.25,0,0,0,.51-4,1.83,1.83,0,0,0-.55-1.24,1.63,1.63,0,0,0-1.27-.26q-2,.26-4.5,3.36a31.75,31.75,0,0,0-4.6,8.5q-1,2.61-1.69,4.86L125,125.7A5.59,5.59,0,0,0,126.46,126.85Z"/><path class="b" d="M149,119.59l.1.78a2.89,2.89,0,0,0,.69,1.6,4,4,0,0,0,3.78,1.16q5.44-.69,11.55-9.95,1.08-1.61,1.95-1.71a1.14,1.14,0,0,1,.94.37,1.11,1.11,0,0,1,.34.62c.14,1.13-1,3.23-3.46,6.28a32,32,0,0,1-6.33,6.07,14.82,14.82,0,0,1-6.63,2.87,6.39,6.39,0,0,1-5.43-1.62,6.69,6.69,0,0,1-1.81-4.12q-.91-7.36,5.12-15.3,4.91-6.47,9.09-7a3.35,3.35,0,0,1,2.14.44,3,3,0,0,1,1.43,2.26,11.25,11.25,0,0,1-1.42,5.93A22.94,22.94,0,0,1,149,119.59Zm.54-3.53a17.77,17.77,0,0,0,4.5-3,19.78,19.78,0,0,0,4.17-5.93,3.66,3.66,0,0,0,.42-2c-.08-.58-.39-.84-.94-.77-.76.1-1.76.8-3,2.11A22.4,22.4,0,0,0,149.54,116.06Z"/><path class="b" d="M177.29,110A86.36,86.36,0,0,1,186,99.79a40.74,40.74,0,0,1,3.91-3.46,4.37,4.37,0,0,1,1.36-.83c.43-.06.91.21,1.43.79a1.73,1.73,0,0,1,.51.91c.06.52-.4,1.31-1.39,2.34q-4,4.09-3.78,5.88c.08.67.5,1,1.26.86,1.25-.15,3.27-1.46,6.06-3.9a2.51,2.51,0,0,1,1.25-.69,1,1,0,0,1,.74.26,1.22,1.22,0,0,1,.5.78c.11.87-1,2.36-3.16,4.47a12.39,12.39,0,0,1-6.92,3.79,4.81,4.81,0,0,1-2.67-.41,2.39,2.39,0,0,1-1.28-2.06,4.71,4.71,0,0,1,.61-2.6,43.58,43.58,0,0,0-7.06,9.39,60.36,60.36,0,0,0-4.23,9.7c-.5,1.42-1.25,2.19-2.23,2.32s-1.68-.31-1.81-1.32.39-3.74,1.53-8.26q2.55-10.06,6-15.85,2.13-3.59,3.82-3.8a1.75,1.75,0,0,1,1.09.21,1.37,1.37,0,0,1,.71,1,3.6,3.6,0,0,1-.65,1.94c-.09.16-.74,1.23-1.94,3.22A23.25,23.25,0,0,0,177.29,110Z"/><path class="b" d="M214.83,90.41a7.18,7.18,0,0,1,4.18.45,3.4,3.4,0,0,1,1.72,2.75,8,8,0,0,1-1.3,5.22,12.83,12.83,0,0,1-5,4.35,10.19,10.19,0,0,1-3.27,1.16c-1.22.16-1.9-.31-2-1.38a1.81,1.81,0,0,1,.84-1.79,29.76,29.76,0,0,1,2.87-1.11,6.61,6.61,0,0,0,2.77-1.9,2.91,2.91,0,0,0,.91-2.33,1.69,1.69,0,0,0-.7-1.29,2.44,2.44,0,0,0-1.62-.23,10.28,10.28,0,0,0-5.32,2.74Q205.61,99.81,206,103c.19,1.51,1.2,3.31,3,5.38,2,2.26,3.14,4.24,3.36,6a6.85,6.85,0,0,1-2.65,6.44,8.58,8.58,0,0,1-4.58,2,7.42,7.42,0,0,1-6.74-2.21,8.57,8.57,0,0,1-2.17-4.87,9.32,9.32,0,0,1,1-5.93,3.11,3.11,0,0,1,2.16-1.82c.73-.09,1.13.15,1.2.74a2.37,2.37,0,0,1-.26,1.09,9.33,9.33,0,0,0-.45,4.53,4.89,4.89,0,0,0,2,3.43,4.39,4.39,0,0,0,3.26.92,3.29,3.29,0,0,0,2.52-1.47,3.79,3.79,0,0,0,.48-2.54q-.22-1.83-2.69-4.49-3.39-3.64-3.79-6.92-.56-4.37,3.78-8.31A16.9,16.9,0,0,1,214.83,90.41Z"/><path class="c" d="M87.64,79.91H83.2v-1.6H93.9v1.6H89.47V91.24H87.64Z"/><path class="d" d="M105.64,78.31V91.24h-1.85V85.47H96.36v5.77H94.51V78.31h1.85v5.56h7.43V78.31Z"/><path class="e" d="M117.5,89.63v1.61h-9.39V78.31h9.13v1.6H110v4h6.49v1.57H110v4.17Z"/><path class="b" d="M138.32,135.61a5.3,5.3,0,0,1,4.72,1.62,6.41,6.41,0,0,1,1.69,3.88,21.39,21.39,0,0,1-1.81,10,35.15,35.15,0,0,1-5.32,9.05c-1.46,1.78-2.65,2.71-3.59,2.81a2.26,2.26,0,0,1-1.8-.73,2.22,2.22,0,0,1-.72-1.43q-.17-1.53,2.29-3.78a25.33,25.33,0,0,0,5.34-6.75c1.84-3.44,2.65-6.26,2.41-8.48a2.94,2.94,0,0,0-.8-1.95,2.27,2.27,0,0,0-1.84-.46c-1.6.17-3.75,1.57-6.45,4.22A71.16,71.16,0,0,0,123,155.4a74.78,74.78,0,0,0-9,18.11q-2.92,9.06-2.27,15.17a7.56,7.56,0,0,0,2.23,4.81,5.71,5.71,0,0,0,4.83,1.82q4.73-.5,11.11-8.6a63.24,63.24,0,0,0,4.51-7,30.49,30.49,0,0,0,2.17-4.12c.35-.89.82-1.37,1.4-1.43A.85.85,0,0,1,139,175q.21,2-4,9.35a41.31,41.31,0,0,1-8,10.3q-5.07,4.65-10,5.17a8.85,8.85,0,0,1-8.4-3.75,12.6,12.6,0,0,1-2.5-6.5q-1-9.43,6.38-24.76a89.3,89.3,0,0,1,14-21.41Q133.12,136.16,138.32,135.61Z"/><path class="b" d="M147.94,176.74q-.94,3.56-1.38,5.72a12.28,12.28,0,0,0-.35,3,1,1,0,0,0,1.17,1c1.05-.11,2.3-1.25,3.75-3.4a56.71,56.71,0,0,0,2.94-5.58c.51-1.05,1.1-1.61,1.77-1.69a1,1,0,0,1,1.25,1q.19,1.88-3.52,8.06-3.87,6.47-7.71,6.87a3.25,3.25,0,0,1-2.86-1.11,4,4,0,0,1-1-2.37,22.58,22.58,0,0,1,.77-6.93,107.35,107.35,0,0,1,3.29-11,148.52,148.52,0,0,1,12.58-27.63q5.37-8.88,9.48-9.31a2.64,2.64,0,0,1,2.25.77,3.41,3.41,0,0,1,1.12,2.23q.66,6.12-8.76,21.52a106.55,106.55,0,0,1-10.37,13.92C151.29,173,149.81,174.66,147.94,176.74Zm2.37-7.27a80.35,80.35,0,0,0,14.17-21.39c2-4.37,3-7.23,2.84-8.57q-.1-1-.93-.87-2.4.26-7.72,10.5A136.89,136.89,0,0,0,150.31,169.47Z"/><path class="b" d="M173,182a46.8,46.8,0,0,1-2.88,4.55q-2.24,3.06-4.73,3.33a3.71,3.71,0,0,1-3.52-1.57,6.05,6.05,0,0,1-1.18-3.15q-.6-5.62,3.44-13.44A22.92,22.92,0,0,1,168,166a4.93,4.93,0,0,1,2.64-1.74,1.57,1.57,0,0,1,1.19.41,1.41,1.41,0,0,1,.54.91c.06.55-.38,1.51-1.33,2.88A45.44,45.44,0,0,0,166.4,177q-1.74,4.47-1.48,6.87a1.4,1.4,0,0,0,.38.91,1,1,0,0,0,.85.24q2.22-.23,5.53-7a41.81,41.81,0,0,0,2.76-7.72,15,15,0,0,1,1.64-4.11,3.29,3.29,0,0,1,2.24-1.78,1.57,1.57,0,0,1,1.24.44,2,2,0,0,1,.71,1.29q.16,1.57-2.26,7.4a14.22,14.22,0,0,0-1.38,6.56,7.53,7.53,0,0,0,1.93,4.48,9.5,9.5,0,0,0,2.58,1.4,2,2,0,0,1,1.16,1.74,1.74,1.74,0,0,1-.54,1.42,2.43,2.43,0,0,1-1.58.74,5.58,5.58,0,0,1-4.16-1.32,7.81,7.81,0,0,1-2.54-4.33Q173.36,183.87,173,182Z"/><path class="b" d="M194.9,163.23q3.38-3.54,6.35-3.85a3.69,3.69,0,0,1,3.18,1.2,4.89,4.89,0,0,1,1.42,3,20.71,20.71,0,0,1-1.35,8.49,34.3,34.3,0,0,1-6.15,10.77q-3.48,4.26-7,4.64a5.74,5.74,0,0,1-2.43-.23,5.41,5.41,0,0,1-2.05-1.24l-.36.83a12.31,12.31,0,0,1-.82,2.08,1.08,1.08,0,0,1-.85.44,1.91,1.91,0,0,1-1.59-.76,2.1,2.1,0,0,1-.62-1.26c-.08-.81,1.15-5.11,3.72-12.9a297.17,297.17,0,0,1,13-32.67q3.09-6.69,3.81-7.87c.51-.94,1-1.44,1.56-1.49a2.15,2.15,0,0,1,1.81.78,2.3,2.3,0,0,1,.63,1.39,4.86,4.86,0,0,1-.58,2.4l-2.28,4.8A166.36,166.36,0,0,0,194.9,163.23Zm-5.36,19.71a2.64,2.64,0,0,0,1.47.28q3.8-.41,7.34-7.45a31.43,31.43,0,0,0,2.48-6.23,12.5,12.5,0,0,0,.59-4,1.82,1.82,0,0,0-.53-1.24,1.62,1.62,0,0,0-1.27-.29q-2,.21-4.56,3.27a31.45,31.45,0,0,0-4.76,8.42q-1.05,2.58-1.79,4.83l-.44,1.24A5.7,5.7,0,0,0,189.54,182.94Z"/></svg>