<svg width="87" height="17" viewBox="0 0 87 17" fill="none" xmlns="http://www.w3.org/2000/svg">
<path d="M86.9565 0.485718L84.0747 0.824001V15.9074H86.9565V0.485718ZM81.4953 0.485718L78.6135 0.824001V15.9074H81.4953V0.485718ZM49.0504 14.3752C47.7002 14.3752 46.8941 13.4997 46.8941 12.047V3.17208H46.6523L42.2995 7.09219V7.31108H44.0124V12.8828C44.0124 14.9921 45.3223 16.1064 47.1158 16.1064C48.5063 16.1064 49.5945 15.4498 50.3401 14.2757V14.1364C49.8766 14.2956 49.4736 14.3752 49.0504 14.3752ZM7.71848 14.3752C6.38844 14.3752 5.58236 13.4997 5.58236 12.047V3.17208H5.34053L0.967529 7.09219V7.31108H2.70061V12.8828C2.70061 14.9921 4.01049 16.1064 5.80403 16.1064C7.17437 16.1064 8.26259 15.4498 9.02837 14.2757V14.1364C8.56487 14.2956 8.14167 14.3752 7.71848 14.3752ZM37.4428 6.09724V15.9074H40.3246V5.77885L37.4428 6.09724ZM13.885 5.77885L11.0033 6.09724V15.9074H13.885V5.77885ZM71.0766 11.5695C71.4595 11.6889 71.9432 11.7685 72.4268 11.7685C74.6436 11.7685 76.4976 10.2959 76.4976 8.54481C76.4976 7.01259 75.0265 5.79875 72.8903 5.77885V5.91815C73.5755 6.27633 73.7367 7.13198 73.7367 7.88815C73.7367 9.83825 72.5074 11.3108 71.0766 11.4302V11.5695ZM22.7116 11.5695C23.0945 11.6889 23.558 11.7685 24.0618 11.7685C26.2786 11.7685 28.1124 10.2959 28.1124 8.54481C28.1124 7.01259 26.6413 5.79875 24.5052 5.77885V5.91815C25.1903 6.27633 25.3516 7.13198 25.3516 7.88815C25.3516 9.83825 24.1223 11.3108 22.7116 11.4302V11.5695ZM72.3261 5.77885C69.3637 5.77885 67.1671 7.98764 67.1671 11.0123C67.1671 14.0369 69.263 16.1064 72.185 16.1064C74.1398 16.1064 75.7318 15.1314 76.5177 13.4002V13.2211C75.9131 13.7584 74.9055 14.0369 73.8979 14.0369C71.6006 14.0369 70.1698 12.6042 70.1698 10.1964C70.1698 8.42542 70.9557 6.55491 72.3261 5.91815V5.77885ZM23.9611 5.77885C20.9987 5.77885 18.782 7.98764 18.782 11.0123C18.782 14.0369 20.8778 16.1064 23.7998 16.1064C25.7748 16.1064 27.3668 15.1314 28.1325 13.4002V13.2211C27.528 13.7584 26.5204 14.0369 25.5128 14.0369C23.2356 14.0369 21.7846 12.5843 21.7846 10.1964C21.7846 8.42542 22.5907 6.55491 23.9611 5.91815V5.77885ZM29.9664 11.3108C29.9664 14.0568 31.5584 16.1064 33.896 16.1064C35.2664 16.1064 36.2941 15.2906 36.939 14.0369V13.9175C36.5964 14.0966 36.1732 14.216 35.7299 14.216C34.158 14.1961 33.0093 12.843 33.0093 10.7735C33.0093 8.06724 34.682 6.23653 36.8786 6.23653V6.07734C36.4151 5.87835 35.8105 5.77885 35.1858 5.77885C32.2234 5.77885 29.9664 8.10704 29.9664 11.3108ZM47.5995 7.31108H50.4006V5.97784H47.5995V7.31108ZM6.28768 7.31108H9.08882V5.97784H6.28768V7.31108ZM60.5976 5.97784H57.4941L61.6656 16.0467H61.8671L63.4188 12.843L60.5976 5.97784ZM54.9751 5.97784H51.8717L56.0432 16.0467H56.2447L57.7964 12.843L54.9751 5.97784ZM63.4592 5.97784C63.963 6.95289 64.4265 8.8632 64.4265 9.81835H64.5675L66.5424 5.97784H63.4592ZM14.3284 8.70401V8.8035C14.9531 8.16673 15.8398 7.98764 16.7063 7.98764C17.2706 7.98764 17.593 8.06724 17.855 8.18663V5.87835C17.6938 5.81865 17.4519 5.77885 17.1497 5.77885C15.5576 5.77885 14.6709 6.8534 14.3284 8.70401Z" fill="#FF5C39"/>
</svg>
